# xmcd
#
# Track frame offsets: 
#        150
#        20846
#        62388
#        77881
#        92049
#        101351
#        120840
#        136098
#        153738
#        165399
#        175829
#        202614
#        237064
#        251029
#        266373
#        280941
#        291011
#        302922
#
# Disc length: 4241 seconds
#
# Revision: 0
# Processed by: cddbd v1.5.2PL0 Copyright (c) Steve Scherf et al.
# Submitted via: ExactAudioCopy v0.95b3
#
DISCID=e4108f12
DTITLE=Jefferson Airplane  - Cleared For Take Off (Live 1967)(CD 2008)
DTITLE=FLAC
DYEAR=1900
DGENRE=
TTITLE0=3\\5 Of A Mile In Ten Seconds
TTITLE1=Don't Let Me Down
TTITLE2=Don't Slip Away
TTITLE3=She Has Funny Cars
TTITLE4=Get Together
TTITLE5=High Flying Bird
TTITLE6=It's No Secret
TTITLE7=Jorma's Blues
TTITLE8=Plastic Fantastic Lover
TTITLE9=Running Round The World
TTITLE10=Somebody To Love
TTITLE11=The Other Side Of This Life
TTITLE12=Thing
TTITLE13=Tobacco Road
TTITLE14=Today
TTITLE15=White Rabbit
TTITLE16=You're Bringing Me Down
TTITLE17=You're My Best Friend
EXTD=
EXTT0=
EXTT1=
EXTT2=
EXTT3=
EXTT4=
EXTT5=
EXTT6=
EXTT7=
EXTT8=
EXTT9=
EXTT10=
EXTT11=
EXTT12=
EXTT13=
EXTT14=
EXTT15=
EXTT16=
EXTT17=
PLAYORDER=
